<svg id="Group_4" data-name="Group 4" xmlns="http://www.w3.org/2000/svg" width="38.694" height="38.694" viewBox="0 0 38.694 38.694">
  <circle id="Ellipse_3" data-name="Ellipse 3" cx="19.347" cy="19.347" r="19.347" transform="translate(0 0)" fill="#59022b" opacity="0.75"/>
  <g id="Group_3" data-name="Group 3" transform="translate(11.645 13.658)">
    <path id="Path_5" data-name="Path 5" d="M71.611,988.223a.985.985,0,0,0-.238-.6l-4.687-4.981a1.007,1.007,0,0,0-1.282-.073.915.915,0,0,0,.009,1.282l3.3,3.5H56.879a.879.879,0,0,0,0,1.758h11.83l-3.3,3.5a.968.968,0,0,0-.009,1.282.994.994,0,0,0,1.282-.073l4.687-4.98a.845.845,0,0,0,.238-.6Z" transform="translate(-56 -982.365)" fill="#fff"/>
  </g>
</svg>
