<svg xmlns="http://www.w3.org/2000/svg" width="28" height="28" viewBox="0 0 28 28">
  <path id="ic_shopping_cart_24px" d="M9.4,24.4a2.8,2.8,0,1,0,2.8,2.8A2.8,2.8,0,0,0,9.4,24.4ZM1,2V4.8H3.8L8.84,15.426l-1.89,3.43A2.707,2.707,0,0,0,6.6,20.2,2.808,2.808,0,0,0,9.4,23H26.2V20.2H9.988a.347.347,0,0,1-.35-.35l.042-.168L10.94,17.4H21.37a2.787,2.787,0,0,0,2.45-1.442l5.012-9.086A1.368,1.368,0,0,0,29,6.2a1.4,1.4,0,0,0-1.4-1.4H6.894L5.578,2H1ZM23.4,24.4a2.8,2.8,0,1,0,2.8,2.8A2.8,2.8,0,0,0,23.4,24.4Z" transform="translate(-1 -2)" fill="#fff"/>
</svg>
