<svg xmlns="http://www.w3.org/2000/svg" xmlns:xlink="http://www.w3.org/1999/xlink" width="46" height="46" viewBox="0 0 46 46">
  <defs>
    <clipPath id="clip-path">
      <rect width="46" height="46" fill="none"/>
    </clipPath>
  </defs>
  <g id="Component_2" data-name="Component 2" clip-path="url(#clip-path)">
    <rect id="Rectangle_693" data-name="Rectangle 693" width="46" height="46" fill="none"/>
    <path id="Path_208" data-name="Path 208" d="M45.9,41.858l-9.526-9.526a19.765,19.765,0,0,0,4.042-12.125A20.083,20.083,0,0,0,20.208,0,20.083,20.083,0,0,0,0,20.208,20.083,20.083,0,0,0,20.208,40.415a19.765,19.765,0,0,0,12.125-4.042L41.858,45.9ZM5.774,20.208A14.294,14.294,0,0,1,20.208,5.774,14.294,14.294,0,0,1,34.642,20.208,14.294,14.294,0,0,1,20.208,34.642,14.294,14.294,0,0,1,5.774,20.208Z" fill="#fff"/>
  </g>
</svg>
